<svg id="visual" viewBox="0 0 900 600" width="900" height="600" xmlns="http://www.w3.org/2000/svg" xmlns:xlink="http://www.w3.org/1999/xlink" version="1.1"><rect x="0" y="0" width="900" height="600" fill="#FFFFFF"></rect><defs><linearGradient id="grad1_0" x1="33.3%" y1="0%" x2="100%" y2="100%"><stop offset="20%" stop-color="#ff6600" stop-opacity="1"></stop><stop offset="80%" stop-color="#ff6600" stop-opacity="1"></stop></linearGradient></defs><defs><linearGradient id="grad1_1" x1="33.3%" y1="0%" x2="100%" y2="100%"><stop offset="20%" stop-color="#ff6600" stop-opacity="1"></stop><stop offset="80%" stop-color="#ff8f4f" stop-opacity="1"></stop></linearGradient></defs><defs><linearGradient id="grad1_2" x1="33.3%" y1="0%" x2="100%" y2="100%"><stop offset="20%" stop-color="#ffb588" stop-opacity="1"></stop><stop offset="80%" stop-color="#ff8f4f" stop-opacity="1"></stop></linearGradient></defs><defs><linearGradient id="grad1_3" x1="33.3%" y1="0%" x2="100%" y2="100%"><stop offset="20%" stop-color="#ffb588" stop-opacity="1"></stop><stop offset="80%" stop-color="#ffdac3" stop-opacity="1"></stop></linearGradient></defs><defs><linearGradient id="grad1_4" x1="33.3%" y1="0%" x2="100%" y2="100%"><stop offset="20%" stop-color="#ffffff" stop-opacity="1"></stop><stop offset="80%" stop-color="#ffdac3" stop-opacity="1"></stop></linearGradient></defs><defs><linearGradient id="grad2_0" x1="0%" y1="0%" x2="66.7%" y2="100%"><stop offset="20%" stop-color="#ff6600" stop-opacity="1"></stop><stop offset="80%" stop-color="#ff6600" stop-opacity="1"></stop></linearGradient></defs><defs><linearGradient id="grad2_1" x1="0%" y1="0%" x2="66.7%" y2="100%"><stop offset="20%" stop-color="#ff8f4f" stop-opacity="1"></stop><stop offset="80%" stop-color="#ff6600" stop-opacity="1"></stop></linearGradient></defs><defs><linearGradient id="grad2_2" x1="0%" y1="0%" x2="66.7%" y2="100%"><stop offset="20%" stop-color="#ff8f4f" stop-opacity="1"></stop><stop offset="80%" stop-color="#ffb588" stop-opacity="1"></stop></linearGradient></defs><defs><linearGradient id="grad2_3" x1="0%" y1="0%" x2="66.7%" y2="100%"><stop offset="20%" stop-color="#ffdac3" stop-opacity="1"></stop><stop offset="80%" stop-color="#ffb588" stop-opacity="1"></stop></linearGradient></defs><defs><linearGradient id="grad2_4" x1="0%" y1="0%" x2="66.7%" y2="100%"><stop offset="20%" stop-color="#ffdac3" stop-opacity="1"></stop><stop offset="80%" stop-color="#ffffff" stop-opacity="1"></stop></linearGradient></defs><g transform="translate(900, 0)"><path d="M0 405.6C-33.1 391.3 -66.2 376.9 -98.4 367.1C-130.5 357.2 -161.7 351.7 -197.5 342.1C-233.3 332.4 -273.6 318.5 -286.8 286.8C-300.1 255.1 -286.3 205.7 -301.4 174C-316.4 142.3 -360.3 128.5 -382.5 102.5C-404.7 76.5 -405.2 38.2 -405.6 0L0 0Z" fill="#ffece1"></path><path d="M0 324.5C-26.5 313 -53 301.5 -78.7 293.6C-104.4 285.7 -129.4 281.4 -158 273.7C-186.6 265.9 -218.8 254.8 -229.5 229.5C-240.1 204.1 -229.1 164.5 -241.1 139.2C-253.2 113.9 -288.3 102.8 -306 82C-323.7 61.2 -324.1 30.6 -324.5 0L0 0Z" fill="#ffc7a5"></path><path d="M0 243.4C-19.9 234.8 -39.7 226.2 -59 220.2C-78.3 214.3 -97 211 -118.5 205.2C-140 199.4 -164.1 191.1 -172.1 172.1C-180.1 153.1 -171.8 123.4 -180.8 104.4C-189.9 85.4 -216.2 77.1 -229.5 61.5C-242.8 45.9 -243.1 22.9 -243.4 0L0 0Z" fill="#ffa26c"></path><path d="M0 162.2C-13.2 156.5 -26.5 150.8 -39.3 146.8C-52.2 142.9 -64.7 140.7 -79 136.8C-93.3 133 -109.4 127.4 -114.7 114.7C-120 102.1 -114.5 82.3 -120.6 69.6C-126.6 56.9 -144.1 51.4 -153 41C-161.9 30.6 -162.1 15.3 -162.2 0L0 0Z" fill="#ff7b30"></path><path d="M0 81.1C-6.6 78.3 -13.2 75.4 -19.7 73.4C-26.1 71.4 -32.3 70.3 -39.5 68.4C-46.7 66.5 -54.7 63.7 -57.4 57.4C-60 51 -57.3 41.1 -60.3 34.8C-63.3 28.5 -72.1 25.7 -76.5 20.5C-80.9 15.3 -81 7.6 -81.1 0L0 0Z" fill="#ff6600"></path></g><g transform="translate(0, 600)"><path d="M0 -405.6C32.7 -396.4 65.5 -387.2 102.5 -382.5C139.5 -377.8 180.8 -377.6 202.8 -351.3C224.8 -325 227.5 -272.6 238.3 -238.3C249.1 -204 267.9 -187.7 291 -168C314.1 -148.3 341.4 -125.4 361.3 -96.8C381.1 -68.2 393.3 -34.1 405.6 0L0 0Z" fill="#ffece1"></path><path d="M0 -324.5C26.2 -317.1 52.4 -309.8 82 -306C111.6 -302.2 144.6 -302.1 162.2 -281C179.9 -260 182 -218.1 190.6 -190.6C199.3 -163.2 214.3 -150.1 232.8 -134.4C251.3 -118.7 273.2 -100.3 289 -77.4C304.9 -54.6 314.7 -27.3 324.5 0L0 0Z" fill="#ffc7a5"></path><path d="M0 -243.4C19.6 -237.9 39.3 -232.3 61.5 -229.5C83.7 -226.7 108.5 -226.5 121.7 -210.8C134.9 -195 136.5 -163.6 143 -143C149.4 -122.4 160.7 -112.6 174.6 -100.8C188.4 -89 204.9 -75.2 216.8 -58.1C228.6 -40.9 236 -20.5 243.4 0L0 0Z" fill="#ffa26c"></path><path d="M0 -162.2C13.1 -158.6 26.2 -154.9 41 -153C55.8 -151.1 72.3 -151 81.1 -140.5C89.9 -130 91 -109.1 95.3 -95.3C99.6 -81.6 107.2 -75.1 116.4 -67.2C125.6 -59.3 136.6 -50.1 144.5 -38.7C152.4 -27.3 157.3 -13.6 162.2 0L0 0Z" fill="#ff7b30"></path><path d="M0 -81.1C6.5 -79.3 13.1 -77.4 20.5 -76.5C27.9 -75.6 36.2 -75.5 40.6 -70.3C45 -65 45.5 -54.5 47.7 -47.7C49.8 -40.8 53.6 -37.5 58.2 -33.6C62.8 -29.7 68.3 -25.1 72.3 -19.4C76.2 -13.6 78.7 -6.8 81.1 0L0 0Z" fill="#ff6600"></path></g></svg>