<svg width="209" height="52" viewBox="0 0 209 52" fill="none" xmlns="http://www.w3.org/2000/svg">
<g clip-path="url(#clip0_1_5)">
<path fill-rule="evenodd" clip-rule="evenodd" d="M10.6909 5.49733C8.9026 6.74779 7.28547 8.22622 5.88166 9.8905C11.6183 9.35791 18.9065 10.2276 27.368 14.4584C36.4037 18.9761 43.6797 19.1289 48.7435 18.1521C48.284 16.761 47.7055 15.424 47.0204 14.153C41.2237 14.7644 33.7925 13.9551 25.132 9.62497C19.6325 6.87522 14.7847 5.74251 10.6909 5.49733ZM43.6342 9.33331C39.0566 4.21875 32.4042 1 25 1C22.8256 1 20.7158 1.27763 18.7046 1.79935C21.4286 2.54261 24.3223 3.62998 27.368 5.15283C33.7087 8.32316 39.183 9.34395 43.6342 9.33331ZM49.8261 23.0351C43.7086 24.2431 35.261 23.995 25.132 18.9305C15.6625 14.1957 8.12555 14.2554 3.04238 15.385C2.78 15.4432 2.5238 15.5045 2.27379 15.5682C1.60828 17.0156 1.07704 18.5376 0.695878 20.1181C1.10298 20.0094 1.52366 19.906 1.9577 19.8095C8.12447 18.4391 16.8376 18.4986 27.368 23.7639C36.8376 28.4986 44.3745 28.439 49.4577 27.3094C49.6319 27.2707 49.8035 27.2307 49.9723 27.1895C49.9908 26.7954 50 26.3987 50 26C50 24.9969 49.941 24.0075 49.8261 23.0351ZM49.156 32.4654C43.0979 33.5245 34.8962 33.118 25.132 28.236C15.6625 23.5012 8.12555 23.5609 3.04238 24.6905C1.91406 24.9411 0.89905 25.2465 0.0036625 25.5689C0.00122125 25.7122 0 25.856 0 26C0 39.8071 11.1929 51 25 51C36.5714 51 46.3066 43.1386 49.156 32.4654Z" fill="#212833"/>
</g>
<defs>
<clipPath id="clip0_1_5">
<rect width="209" height="52" fill="white"/>
</clipPath>
</defs>
</svg>
